<svg version="1.1" xmlns="http://www.w3.org/2000/svg" xmlns:xlink="http://www.w3.org/1999/xlink" x="0px" y="0px" viewBox="0 0 450 290" style="enable-background:new 0 0 450 290;" xml:space="preserve">
<style type="text/css">
	.st0{fill:#032D6B;}
	.st1{fill:#003677;}
	.st2{fill:#1758A0;}
	.st3{fill:#2F87CE;}
	.st4{fill:#084184;}
	.st5{opacity:0.22;fill:#084184;}
	.st6{opacity:0.22;fill:#003677;}
	.st7{fill:#FFFFFF;}
	.st8{opacity:0.4;fill:#FFFFFF;}
	.st9{opacity:0.4;fill:#FFAC33;}
	.st10{opacity:0.7;fill:#FFAC33;}
	.st11{fill:#FFAC33;}
	.st12{fill:#FD6F61;}
	.st13{opacity:0.4;fill:#48A4D8;}
	.st14{opacity:0.7;fill:#48A4D8;}
	.st15{fill:#48A4D8;}
	.st16{fill:#B3DFF2;}
	.st17{fill:#FFCE45;}
	.st18{fill:#134E8E;}
	.st19{fill:#031426;}
	.st21{fill:#EF5552;}
	.st22{opacity:0.5;fill:#FFCE45;}
	.st23{fill:#051D3A;}
</style>
<g>
	<path class="st0" d="M426.8,104.81c-11.43-17.01-29.25-28.67-50.03-30.9c-21.5-2.31-41.77,7.12-62.97,8.79c-12.56,0.99-27.23,0.22-39.26-3.89c-11.3-3.85,16.21-29.09,18.07-30.78c4.98-4.51,13.37-10.35,10.47-18.04c-3.75-9.95-22.24-14.81-30.98-17.47c-18.87-5.74-38.15-7.01-57.7-8.16c-30.99-1.83-63.34-1.64-93.8,4.92c-29.74,6.41-72.43,23.28-68.41,60.59c3.54,32.86,50.28,46.39,35.24,81.22c-12.13,28.08-36.71,48.02-54.44,72.13c-12.42,16.89-17.45,31.49-17.2,43.77h404.44c-4.45-8.32-13.13-15.53-26.38-21.33c-9.46-4.14-22.6-11.15-24.23-22.73c-1.51-10.74,7.23-20.71,16.96-23.48c18.84-5.36,41.24-16.65,48.16-36.2c5.74-16.22,4.19-36.59-3.89-51.73C429.59,109.2,428.25,106.96,426.8,104.81z"/>
	<path class="st1" d="M446,266.97c-21.02-17.05-37.7-20.31-49.12-20.08c-8.03,0.16-14.54-13.41-40.95-9.28c-30.08,4.7-34.18-11.41-68.48-12.62c-46.15-1.64-43.57,19.41-83.67,17.56c-52.63-2.43-49.58-25.6-82.06-17.56c-32.48,8.04-40.65,30.65-59.89,24.48c-7.8-2.5-17.23,1.38-30.46,4.62c-10.23,2.5-18.31,8.3-23.6,12.89c58.26,0.07,162.25,0.13,220.51,0.12C285.33,267.1,388.96,267.04,446,266.97z"/>
	<path class="st2" d="M30.85,258.48c-2.66-2.05-4.36-3.9-5.16-4.7c-4.68-4.67-10.98-5.96-12.65-6.25c-4.45-0.76-6.68,0.32-7.02-0.54c-0.62-1.58,5.97-7.7,13.96-7.94c9.26-0.28,14.86,7.51,15.27,8.1c3.65,5.26,4.46,12.58,2.54,13.73c-0.76,0.45-2.06,0.01-3.47-0.46C32.67,259.85,31.56,259.03,30.85,258.48z"/>
	<path class="st3" d="M44.75,267.12c0,0-17.8,1.17-25.73-6.63c-7.93-7.81,10.64-2.97,10.64-2.97L44.75,267.12z"/>
	<path class="st2" d="M13.46,253.2c-2.51,1.97-5.01,3.93-7.52,5.9c3.44,2.57,7.38,4.42,11.8,4.63c4.2,0.2,6.2-1.2,10.76-1.27c3.61-0.06,7.77,0.74,12.39,3.14c-2.37-2.99-4.67-5.24-6.49-6.84c-1.32-1.17-3.22-2.82-6.02-4.51c-3.48-2.11-5.63-3.41-8.56-3.35C17.18,250.93,15,252.07,13.46,253.2z"/>
	<path class="st3" d="M44.06,266.81c-7.29-2.63-12.54-5.7-16.02-8.06c-3.42-2.31-5.14-3.95-8.21-4.51c-5.35-0.98-10.42,2.08-13.88,4.86c0.38-0.74,5.08-9.65,14.69-10.76c8.49-0.98,17.15,4.55,20.48,13.65C42.09,263.59,43.08,265.2,44.06,266.81z"/>
	<path class="st2" d="M42.27,264.85c-2.62-4.38-5.76-10.16-7.28-20.84c-2.46-17.24,2.48-33.41,4.98-40.52c-0.48,6.59-0.21,15.01,3.77,21.47c2.31,3.75,2.23,4.31,3.86,6.59C51.03,236.32,53.14,244.74,42.27,264.85z"/>
	<path class="st2" d="M49.84,249.32c0.36,1.41,7.76,5.99,19.68,5.55c-2.76-2.16-6.14-8.31-8.66-10.29C53.47,246.54,49.55,248.18,49.84,249.32z"/>
	<path class="st3" d="M42.35,266.54c-0.15,0.26-0.28,0.49-0.39,0.7c4.55,0.31,10.89-0.04,17.81-3.12c2.06-0.92,3.91-1.96,5.55-3.03c-0.49-0.36-2.72-1.94-5.86-2.74c-1.21,0.03-2.39,0.33-3.51,1.13C51.74,262.65,47.28,265.97,42.35,266.54z"/>
	<path class="st2" d="M47.35,258.97c-2.23,1.11-3.38,2.88-3.7,3.41c-1.03,1.7-1.25,3.33-1.3,4.16c3.5,0.58,5.84-0.25,7.32-1.1c2.04-1.17,3.03-2.71,6.56-5.11c1.36-0.93,2.51-1.58,3.25-1.98c-2.45-0.26-4.51-0.3-6.03-0.27C50.46,258.13,48.94,258.18,47.35,258.97z"/>
	<path class="st3" d="M42.57,267.02c-0.93-1.24-2.68-3.89-3.3-7.7c-0.79-4.91,0.91-8.4,1.39-9.33c1.96-1.54,4.7-3.34,8.17-4.5c5.02-1.68,9.53-1.31,12.02-0.91c-2.5,1.17-6.41,3.51-10.35,8.42C46.97,257.41,44.41,262.55,42.57,267.02z"/>
	<path class="st3" d="M42.91,267.12c-2.58-4.91-7.1-15.02-7.79-29.39c-0.69-14.21,2.56-26.91,4.85-34.24c-2.29,2.73-5.28,6.74-7.93,11.94c-0.84,1.65-2.82,5.53-3.79,9.45c-1.85,7.43,0.25,13.85,2.38,20.09C32.43,250.27,35.91,258.45,42.91,267.12z"/>
	<path class="st3" d="M35.38,254.1c-1.96-6.66-7.28-11.69-13.79-12.97c-7.69-1.51-13.54,2.9-14.45,3.61c0.91-1.71,3.06-5.18,7.2-7.31c5.46-2.81,14.14-3.11,18.89,2.62C37.96,245.73,35.59,253.46,35.38,254.1z"/>
	<path class="st2" d="M35.39,244.19c-0.05,0.01-0.1-0.01-0.12-0.06c-3.27-6.52-6.88-7.52-6.91-7.53c-0.06-0.02-0.1-0.08-0.08-0.14c0.02-0.06,0.08-0.1,0.14-0.08c0.15,0.04,3.74,1.04,7.06,7.65c0.03,0.06,0.01,0.12-0.05,0.15C35.41,244.19,35.4,244.19,35.39,244.19z"/>
	<path class="st2" d="M37.76,257.93c-0.04,0-0.08-0.02-0.1-0.06c-1.41-2.47-4.5-6.22-4.53-6.26c-0.04-0.05-0.03-0.12,0.02-0.16c0.05-0.04,0.12-0.03,0.16,0.02c0.03,0.04,3.13,3.81,4.55,6.29c0.03,0.05,0.01,0.12-0.04,0.15C37.79,257.92,37.77,257.93,37.76,257.93z"/>
	<path class="st2" d="M42.19,265.02c-0.04,0.01-0.09-0.01-0.11-0.05c-1.03-1.62-3.51-7.95-3.62-8.21c-0.02-0.06,0.01-0.12,0.06-0.15c0.06-0.02,0.12,0.01,0.15,0.06c0.03,0.07,2.58,6.57,3.6,8.18c0.03,0.05,0.02,0.12-0.03,0.15C42.22,265.02,42.21,265.02,42.19,265.02z"/>
	<path class="st1" d="M439.88,237.74h-8.82c-0.37,0-0.66-0.3-0.66-0.66v-9.92c0-0.37-0.3-0.66-0.66-0.66h-17.72c-0.37,0-0.66,0.3-0.66,0.66v7.4c0,0.37-0.3,0.66-0.66,0.66h-9.32c-0.25,0-0.49-0.15-0.6-0.37l-3.85-7.97c-0.11-0.23-0.34-0.37-0.6-0.37h-2.58c-0.37,0-0.66-0.3-0.66-0.66v-9.37c0-0.37-0.3-0.66-0.66-0.66h-1.49c-0.37,0-0.66-0.3-0.66-0.66v-5.14c0-0.37-0.3-0.66-0.66-0.66h-4.58c-0.37,0-0.66-0.3-0.66-0.66v-10.59c0-0.37-0.3-0.66-0.66-0.66h-9.36c-0.37,0-0.66-0.3-0.66-0.66v-11.32c0-0.37-0.3-0.66-0.66-0.66h-8.51c-0.37,0-0.66,0.3-0.66,0.66v41.4c0,0.49-0.4,0.89-0.89,0.89h-2.58c-0.37,0-0.66-0.3-0.66-0.66v-22.86c0-0.37-0.3-0.66-0.66-0.66h-14.93c-0.37,0-0.66,0.3-0.66,0.66v32.86c0,0.37-0.3,0.66-0.66,0.66h-44.73c-0.37,0-0.66,0.3-0.66,0.66v28.41c0,0.37,0.3,0.66,0.66,0.66l87.47-0.07l54.35,0.07c0.37,0,0.66-0.3,0.66-0.66V238.4C440.54,238.03,440.25,237.74,439.88,237.74z"/>
	<path class="st4" d="M404.84,264.27h-18.81c-1.69,0-3.06-1.38-3.06-3.06v-15.49c0-1.69,1.38-3.06,3.06-3.06h18.81c1.69,0,3.06,1.38,3.06,3.06v15.49C407.91,262.89,406.53,264.27,404.84,264.27z"/>
	<path class="st5" d="M372.89,246.93h-64.74c-1.13,0-2.06-0.93-2.06-2.06v0c0-1.14,0.93-2.06,2.06-2.06h64.74c1.13,0,2.06,0.93,2.06,2.06l0,0C374.95,246.01,374.02,246.93,372.89,246.93z"/>
	<path class="st5" d="M372.89,255.31h-64.74c-1.13,0-2.06-0.93-2.06-2.06l0,0c0-1.13,0.93-2.06,2.06-2.06h64.74c1.13,0,2.06,0.93,2.06,2.06l0,0C374.95,254.38,374.02,255.31,372.89,255.31z"/>
	<path class="st5" d="M372.89,263.68h-64.74c-1.13,0-2.06-0.93-2.06-2.06l0,0c0-1.13,0.93-2.06,2.06-2.06h64.74c1.13,0,2.06,0.93,2.06,2.06l0,0C374.95,262.76,374.02,263.68,372.89,263.68z"/>
	<path class="st4" d="M386.03,233.97h-5.24c-0.29-0.95-0.59-2.39-0.45-4.14c0.07-0.92,0.26-1.71,0.45-2.36c1.75,0,3.5,0,5.24,0c-0.23,0.58-0.47,1.34-0.57,2.25C385.24,231.61,385.7,233.13,386.03,233.97z"/>
	<path class="st4" d="M390.27,225.02h-5.24c-0.27-0.64-0.64-1.72-0.66-3.09c-0.03-1.54,0.38-2.74,0.66-3.4c1.75,0,3.5,0,5.24,0c-0.35,0.36-0.95,1.08-1.2,2.15C388.53,222.97,390.07,224.8,390.27,225.02z"/>
	<path class="st4" d="M427.25,237.11h-5.24c-0.27-0.64-0.64-1.72-0.66-3.09c-0.03-1.54,0.38-2.74,0.66-3.4c1.75,0,3.5,0,5.24,0c-0.35,0.36-0.95,1.08-1.2,2.15C425.52,235.06,427.06,236.89,427.25,237.11z"/>
	<path class="st4" d="M430.4,248.11h-5.24c-0.29-0.95-0.59-2.39-0.45-4.14c0.07-0.92,0.26-1.71,0.45-2.36c1.75,0,3.5,0,5.24,0c-0.23,0.58-0.47,1.34-0.57,2.25C429.61,245.74,430.07,247.26,430.4,248.11z"/>
	<path class="st4" d="M437.3,248.11h-5.24c-0.27-0.64-0.64-1.72-0.66-3.09c-0.03-1.54,0.38-2.74,0.66-3.4c1.75,0,3.5,0,5.24,0c-0.35,0.36-0.95,1.08-1.2,2.15C435.57,246.05,437.11,247.89,437.3,248.11z"/>
	<path class="st4" d="M427.41,257.53h-5.24c-0.29-0.95-0.59-2.39-0.45-4.14c0.07-0.92,0.26-1.71,0.45-2.36c1.75,0,3.5,0,5.24,0c-0.23,0.58-0.47,1.34-0.57,2.25C426.63,255.17,427.08,256.69,427.41,257.53z"/>
	<path class="st4" d="M434.32,257.53h-5.24c-0.27-0.64-0.64-1.72-0.66-3.09c-0.03-1.54,0.38-2.74,0.66-3.4c1.75,0,3.5,0,5.24,0c-0.35,0.36-0.95,1.08-1.2,2.15C432.59,255.47,434.13,257.31,434.32,257.53z"/>
	<path class="st1" d="M206.3,192.14h17.08c0.38,0,0.69,0.31,0.69,0.69v12.57c0,0.38,0.31,0.69,0.69,0.69h2.43c0.19,0,0.37-0.08,0.5-0.21c2.36-2.47,4.73-4.94,7.09-7.41c0.08-0.08,0.14-0.19,0.17-0.3c0.22-0.86,0.43-14.37,0.44-15.7c0.01-1.12-0.12-2.11-0.29-2.92c-0.09-0.42,0.24-0.82,0.67-0.82h14.87c0.43,0,0.76,0.39,0.67,0.82c-0.35,1.82-0.63,16.44-0.61,18.99c0.02,2.4,0.31,4.51,0.66,6.23c0.07,0.32,0.35,0.55,0.67,0.55h5.34c0.42,0,0.73,0.36,0.68,0.78c-0.09,0.69-0.15,1.44-0.18,2.23c-0.06,1.7,0.07,3.23,0.26,4.51c0.02,0.14,0.09,0.27,0.19,0.38c1.94,1.98,3.89,3.96,5.83,5.94c0.08,0.08,0.14,0.18,0.17,0.29c0.34,1.15,0.89,11.9,0.19,14.65c-0.11,0.44,0.21,0.86,0.66,0.86h4.21c0.47,0,0.8,0.46,0.65,0.91c-0.36,1.02-0.71,2.46-0.71,4.18c0,1.99,0.48,3.59,0.88,4.63c0.1,0.26,0.36,0.44,0.64,0.44h23.14c0.3,0,0.56,0.19,0.65,0.47c0.7,2.1,1.36,4.75,1.62,7.85c0.48,5.72-0.62,10.44-1.62,13.46c-0.09,0.28-0.35,0.47-0.65,0.47l-140.33,0.11l0-25.18l27.87-0.34l0-26.26l24.77-1.04L206.3,192.14z"/>
	<path class="st6" d="M255.42,226.6h5.43c0.3-0.98,0.62-2.48,0.47-4.28c-0.08-0.95-0.26-1.77-0.47-2.44c-1.81,0-3.62,0-5.43,0c0.24,0.6,0.48,1.39,0.59,2.33C256.23,224.15,255.76,225.73,255.42,226.6z"/>
	<path class="st6" d="M248.27,226.6h5.43c0.28-0.66,0.66-1.78,0.69-3.2c0.03-1.59-0.39-2.83-0.69-3.52c-1.81,0-3.62,0-5.43,0c0.37,0.38,0.98,1.12,1.24,2.22C250.06,224.47,248.47,226.37,248.27,226.6z"/>
	<path class="st6" d="M260.38,244.94h5.43c0.3-0.98,0.62-2.48,0.47-4.28c-0.08-0.95-0.26-1.77-0.47-2.44c-1.81,0-3.62,0-5.43,0c0.24,0.6,0.48,1.39,0.59,2.33C261.19,242.49,260.72,244.07,260.38,244.94z"/>
	<path class="st6" d="M249.24,215.69h5.43c0.3-0.98,0.62-2.48,0.47-4.28c-0.08-0.95-0.26-1.77-0.47-2.44c-1.81,0-3.62,0-5.43,0c0.24,0.6,0.48,1.39,0.59,2.33C250.05,213.24,249.58,214.82,249.24,215.69z"/>
	<path class="st6" d="M252.33,236.04h5.43c0.3-0.98,0.62-2.48,0.47-4.28c-0.08-0.95-0.26-1.77-0.47-2.44c-1.81,0-3.62,0-5.43,0c0.24,0.6,0.48,1.39,0.59,2.33C253.14,233.59,252.67,235.17,252.33,236.04z"/>
	<path class="st6" d="M245.18,236.04h5.43c0.28-0.66,0.66-1.78,0.69-3.2c0.03-1.59-0.39-2.83-0.69-3.52c-1.81,0-3.62,0-5.43,0c0.37,0.38,0.98,1.12,1.24,2.22C246.97,233.91,245.38,235.81,245.18,236.04z"/>
	<path class="st6" d="M193.84,237.54h5.43c0.3-0.98,0.62-2.48,0.47-4.28c-0.08-0.95-0.26-1.77-0.47-2.44c-1.81,0-3.62,0-5.43,0c0.24,0.6,0.48,1.39,0.59,2.33C194.65,235.09,194.18,236.67,193.84,237.54z"/>
	<path class="st6" d="M186.69,237.54h5.43c0.28-0.66,0.66-1.78,0.69-3.2c0.03-1.59-0.39-2.83-0.69-3.52c-1.81,0-3.62,0-5.43,0c0.37,0.38,0.98,1.12,1.24,2.22C188.49,235.41,186.89,237.31,186.69,237.54z"/>
	<path class="st6" d="M187.67,226.63h5.43c0.3-0.98,0.62-2.48,0.47-4.28c-0.08-0.95-0.26-1.77-0.47-2.44c-1.81,0-3.62,0-5.43,0c0.24,0.6,0.48,1.39,0.59,2.33C188.48,224.19,188.01,225.76,187.67,226.63z"/>
	<path class="st6" d="M190.75,246.98h5.43c0.3-0.98,0.62-2.48,0.47-4.28c-0.08-0.95-0.26-1.77-0.47-2.44c-1.81,0-3.62,0-5.43,0c0.24,0.6,0.48,1.39,0.59,2.33C191.56,244.54,191.09,246.11,190.75,246.98z"/>
	<path class="st6" d="M183.6,246.98h5.43c0.28-0.66,0.66-1.78,0.69-3.2c0.03-1.59-0.39-2.83-0.69-3.52c-1.81,0-3.62,0-5.43,0c0.37,0.38,0.98,1.12,1.24,2.22C185.4,244.85,183.8,246.75,183.6,246.98z"/>
	<path class="st6" d="M165.75,263.71h5.43c0.3-0.98,0.62-2.48,0.47-4.28c-0.08-0.95-0.26-1.77-0.47-2.44c-1.81,0-3.62,0-5.43,0c0.24,0.6,0.48,1.39,0.59,2.33C166.56,261.27,166.09,262.84,165.75,263.71z"/>
	<path class="st6" d="M158.6,263.71h5.43c0.28-0.66,0.66-1.78,0.69-3.2c0.03-1.59-0.39-2.83-0.69-3.52c-1.81,0-3.62,0-5.43,0c0.37,0.38,0.98,1.12,1.24,2.22C160.39,261.59,158.8,263.49,158.6,263.71z"/>
	<path class="st6" d="M276.22,254.89h5.43c0.3-0.98,0.62-2.48,0.47-4.28c-0.08-0.95-0.26-1.77-0.47-2.44c-1.81,0-3.62,0-5.43,0c0.24,0.6,0.48,1.39,0.59,2.33C277.03,252.44,276.56,254.02,276.22,254.89z"/>
	<path class="st6" d="M269.07,254.89h5.43c0.28-0.66,0.66-1.78,0.69-3.2c0.03-1.59-0.39-2.83-0.69-3.52c-1.81,0-3.62,0-5.43,0c0.37,0.38,0.98,1.12,1.24,2.22C270.86,252.76,269.27,254.66,269.07,254.89z"/>
	<path class="st6" d="M272.32,264.77h5.43c0.3-0.98,0.62-2.48,0.47-4.28c-0.08-0.95-0.26-1.77-0.47-2.44c-1.81,0-3.62,0-5.43,0c0.24,0.6,0.48,1.39,0.59,2.33C273.13,262.32,272.66,263.9,272.32,264.77z"/>
	<path class="st6" d="M265.17,264.77h5.43c0.28-0.66,0.66-1.78,0.69-3.2c0.03-1.59-0.39-2.83-0.69-3.52c-1.81,0-3.62,0-5.43,0c0.37,0.38,0.98,1.12,1.24,2.22C266.96,262.64,265.37,264.54,265.17,264.77z"/>
	<path class="st6" d="M216.87,245h36.03c1.17,0,2.14-0.96,2.14-2.14v0c0-1.17-0.96-2.14-2.14-2.14h-36.03c-1.17,0-2.14,0.96-2.14,2.14l0,0C214.73,244.04,215.69,245,216.87,245z"/>
	<path class="st6" d="M216.87,253.67h36.03c1.17,0,2.14-0.96,2.14-2.14l0,0c0-1.17-0.96-2.14-2.14-2.14h-36.03c-1.17,0-2.14,0.96-2.14,2.14l0,0C214.73,252.7,215.69,253.67,216.87,253.67z"/>
	<path class="st6" d="M216.87,262.33h36.03c1.17,0,2.14-0.96,2.14-2.14l0,0c0-1.17-0.96-2.14-2.14-2.14h-36.03c-1.17,0-2.14,0.96-2.14,2.14l0,0C214.73,261.37,215.69,262.33,216.87,262.33z"/>
	<path class="st7" d="M413.49,130.05l-80.4,114.41c-1.25,1.78-3.6,2.29-5.24,1.13l-38.73-27.22c-1.64-1.15-1.96-3.53-0.71-5.31l80.4-114.41c1.25-1.78,3.6-2.29,5.24-1.13l38.73,27.22C414.42,125.89,414.74,128.27,413.49,130.05z"/>
	<path class="st2" d="M407.32,132.37c0.62-0.89,0.41-2.12-0.48-2.74l-35.51-24.96c-0.89-0.62-2.12-0.41-2.74,0.48l-17,24.2c-0.62,0.89-0.41,2.12,0.48,2.74l35.51,24.96c0.89,0.62,2.12,0.41,2.74-0.48L407.32,132.37z"/>
	<path class="st2" d="M384.86,164.34c0.62-0.89,0.41-2.12-0.48-2.74l-35.51-24.96c-0.89-0.62-2.12-0.41-2.74,0.48l-17,24.2c-0.62,0.89-0.41,2.12,0.48,2.74l35.51,24.96c0.89,0.62,2.12,0.41,2.74-0.48L384.86,164.34z"/>
	<path class="st2" d="M362.4,196.3c0.62-0.89,0.41-2.12-0.48-2.74l-35.51-24.96c-0.89-0.62-2.12-0.41-2.74,0.48l-17,24.2c-0.62,0.89-0.41,2.12,0.48,2.74l35.51,24.96c0.89,0.62,2.12,0.41,2.74-0.48L362.4,196.3z"/>
	<path class="st8" d="M413.49,130.05l-80.4,114.41c-1.25,1.78-3.6,2.29-5.24,1.13l-30.38-21.35c5.31-5.34,13.57-12.72,23.54-18.49c2.89-1.67,5.93-3.21,9.09-4.53c8.35-3.48,15.73-8.36,22.2-14.44c1.36-1.28,2.69-2.62,3.97-4c7.29-7.87,13.3-17.4,18.12-28.22c0.77-1.72,1.5-3.46,2.21-5.25c0.32-0.82,0.64-1.64,0.95-2.47c4.14-11.02,11.7-18.99,18.97-24.49c2.26-1.71,4.49-3.18,6.58-4.43l9.68,6.8C414.42,125.89,414.74,128.27,413.49,130.05z"/>
	<path class="st7" d="M370.6,100.29l-29.99,136.58c-0.47,2.13-2.44,3.5-4.4,3.07l-46.24-10.15c-1.96-0.43-3.17-2.5-2.71-4.63l29.99-136.58c0.47-2.13,2.44-3.5,4.4-3.07l46.24,10.15C369.85,96.09,371.07,98.16,370.6,100.29z"/>
	<path class="st9" d="M365.81,104.81c0.23-1.06-0.44-2.11-1.5-2.34l-42.39-9.31c-1.06-0.23-2.11,0.44-2.34,1.5l-6.34,28.89c-0.23,1.06,0.44,2.11,1.5,2.34l42.39,9.31c1.06,0.23,2.11-0.44,2.34-1.5L365.81,104.81z"/>
	<path class="st10" d="M357.43,142.97c0.23-1.06-0.44-2.11-1.5-2.34l-42.39-9.31c-1.06-0.23-2.11,0.44-2.34,1.5l-6.34,28.89c-0.23,1.06,0.44,2.11,1.5,2.34l42.39,9.31c1.06,0.23,2.11-0.44,2.34-1.5L357.43,142.97z"/>
	<path class="st11" d="M349.06,181.13c0.23-1.06-0.44-2.11-1.5-2.34l-42.39-9.31c-1.06-0.23-2.11,0.44-2.34,1.5l-6.34,28.89c-0.23,1.06,0.44,2.11,1.5,2.34l42.39,9.31c1.06,0.23,2.11-0.44,2.34-1.5L349.06,181.13z"/>
	<path class="st8" d="M370.6,100.29l-29.99,136.58c-0.47,2.13-2.44,3.5-4.4,3.07l-36.26-7.96c2.83-6.98,7.6-16.97,14.57-26.14c2.02-2.66,4.23-5.25,6.63-7.68c6.36-6.43,11.28-13.79,14.9-21.89c0.76-1.71,1.47-3.45,2.12-5.23c3.69-10.08,5.55-21.19,5.82-33.03c0.04-1.88,0.05-3.78,0.01-5.69c-0.02-0.88-0.04-1.76-0.07-2.64c-0.44-11.76,3.46-22.03,8.04-29.91c1.42-2.45,2.91-4.67,4.36-6.63l11.56,2.54C369.85,96.09,371.07,98.16,370.6,100.29z"/>
	<path class="st7" d="M326.81,88.65l17.31,138.76c0.27,2.16-1.11,4.14-3.1,4.39l-46.97,5.86c-1.99,0.25-3.79-1.34-4.06-3.49L272.68,95.4c-0.27-2.16,1.09-4.1,3.08-4.35l46.97-5.86C324.73,84.95,326.54,86.49,326.81,88.65z"/>
	<path class="st12" d="M323.91,94.52c-0.13-1.08-1.12-1.84-2.19-1.71l-43.07,5.37c-1.08,0.13-1.84,1.12-1.71,2.19l3.66,29.38c0.13,1.08,1.12,1.84,2.19,1.71l43.07-5.37c1.08-0.13,1.84-1.12,1.71-2.19L323.91,94.52z"/>
	<path class="st12" d="M328.74,133.28c-0.13-1.08-1.12-1.84-2.19-1.71l-43.07,5.37c-1.08,0.13-1.84,1.12-1.71,2.19l3.66,29.38c0.13,1.08,1.12,1.84,2.19,1.71l43.07-5.37c1.08-0.13,1.84-1.12,1.71-2.19L328.74,133.28z"/>
	<path class="st12" d="M333.58,172.03c-0.13-1.08-1.12-1.84-2.19-1.71l-43.07,5.37c-1.08,0.13-1.84,1.12-1.71,2.19l3.66,29.38c0.13,1.08,1.12,1.84,2.19,1.71l43.07-5.37c1.08-0.13,1.84-1.12,1.71-2.19L333.58,172.03z"/>
	<path class="st8" d="M326.81,88.65l17.31,138.76c0.27,2.16-1.11,4.14-3.1,4.39l-36.84,4.6c0.34-7.53,1.5-18.55,5.01-29.52c1.02-3.18,2.24-6.37,3.69-9.46c3.85-8.18,6.03-16.76,6.74-25.62c0.15-1.87,0.23-3.75,0.25-5.64c0.11-10.73-1.84-21.82-5.54-33.08c-0.58-1.79-1.21-3.58-1.89-5.37c-0.31-0.82-0.62-1.65-0.95-2.47c-4.34-10.94-4.09-21.92-2.4-30.88c0.52-2.79,1.18-5.48,1.9-7.7l11.74-1.46C324.73,84.95,326.54,86.49,326.81,88.65z"/>
	<path class="st7" d="M280.4,93.19l61.83,125.42c0.96,1.95,0.28,4.25-1.52,5.14l-42.46,20.93c-1.8,0.89-4.04,0.03-5-1.93l-61.83-125.42c-0.96-1.95-0.28-4.25,1.52-5.14l42.46-20.93C277.19,90.38,279.43,91.24,280.4,93.19z"/>
	<path class="st13" d="M279.48,99.71c-0.48-0.97-1.66-1.37-2.63-0.89l-38.93,19.19c-0.97,0.48-1.37,1.66-0.89,2.63l13.08,26.53c0.48,0.97,1.66,1.37,2.63,0.89l38.93-19.19c0.97-0.48,1.37-1.66,0.89-2.63L279.48,99.71z"/>
	<path class="st14" d="M296.75,134.75c-0.48-0.97-1.66-1.37-2.63-0.89l-38.93,19.19c-0.97,0.48-1.37,1.66-0.89,2.63l13.08,26.53c0.48,0.97,1.66,1.37,2.63,0.89l38.93-19.19c0.97-0.48,1.37-1.66,0.89-2.63L296.75,134.75z"/>
	<path class="st15" d="M314.03,169.79c-0.48-0.97-1.66-1.37-2.63-0.89l-38.93,19.19c-0.97,0.48-1.37,1.66-0.89,2.63l13.08,26.53c0.48,0.97,1.66,1.37,2.63,0.89l38.93-19.19c0.97-0.48,1.37-1.66,0.89-2.63L314.03,169.79z"/>
	<path class="st8" d="M280.4,93.19l61.83,125.42c0.96,1.95,0.28,4.25-1.52,5.14l-33.3,16.42c-2.14-7.22-4.66-18-4.93-29.52c-0.08-3.34,0.03-6.75,0.39-10.14c0.95-8.99,0.21-17.81-2.02-26.41c-0.47-1.81-1.01-3.61-1.61-5.41c-3.41-10.18-8.89-20.02-16.07-29.43c-1.14-1.5-2.32-2.98-3.54-4.45c-0.56-0.68-1.13-1.35-1.71-2.02c-7.68-8.91-11.05-19.37-12.39-28.39c-0.42-2.8-0.64-5.47-0.73-7.9l10.61-5.23C277.19,90.38,279.43,91.24,280.4,93.19z"/>
	<ellipse transform="matrix(0.7071 -0.7071 0.7071 0.7071 -72.4085 294.2786)" class="st7" cx="319.02" cy="234.54" rx="33.17" ry="33.17"/>
	<path class="st3" d="M321.36,253.27c-10.33,1.29-19.78-6.07-21.06-16.39c-1.29-10.33,6.07-19.78,16.39-21.06s19.78,6.07,21.06,16.39C339.04,242.53,331.68,251.98,321.36,253.27z M316.77,216.48c-9.96,1.24-17.05,10.36-15.81,20.31c1.24,9.96,10.36,17.05,20.31,15.81c9.96-1.24,17.05-10.36,15.81-20.31S326.73,215.24,316.77,216.48z"/>
	<ellipse transform="matrix(0.9723 -0.2338 0.2338 0.9723 -45.9907 81.0784)" class="st3" cx="319.02" cy="234.54" rx="3.64" ry="3.64"/>
	<path class="st3" d="M299,103.61v150.04c0,0.74-0.05,1.45-0.23,2.12c-0.02,0.07-0.01,0.13-0.03,0.2c-0.57,1.91-1.83,3.55-3.5,4.57c-1.22,0.75-2.64,1.2-4.17,1.2H68.68c-0.24,0-0.47-0.03-0.71-0.06c-0.59-0.06-1.22-0.2-1.76-0.4c-2.7-0.99-4.69-3.59-4.69-6.63V102.62c0-2.96,1.89-5.48,4.48-6.52c0.81-0.32,1.75-0.48,2.68-0.48h222.39C295.51,95.62,299,99.17,299,103.61z"/>
	<path class="st16" d="M290.54,242.57H82.07c-1.81,0-3.28-1.47-3.28-3.28v-134.3c0-1.81,1.47-3.28,3.28-3.28h208.47c1.81,0,3.28,1.47,3.28,3.28v134.3C293.82,241.1,292.35,242.57,290.54,242.57z"/>
	<path class="st15" d="M67.25,261.69L67.25,261.69c-3.17,0-5.72-2.56-5.72-5.71V101.65c0-3.16,2.56-5.71,5.71-5.71h0.01c3.16,0,5.71,2.56,5.71,5.71v154.33C72.97,259.14,70.41,261.69,67.25,261.69z"/>
	<path class="st15" d="M178.04,261.7L178.04,261.7c0-3.17,2.56-5.72,5.71-5.72h230.77c3.16,0,5.71,2.56,5.71,5.71v0.01c0,3.16-2.56,5.71-5.71,5.71H183.75C180.6,267.41,178.04,264.85,178.04,261.7z"/>
	<path class="st15" d="M66.16,261.7L66.16,261.7c0-3.16,2.56-5.72,5.72-5.72h111.24c3.16,0,5.71,2.56,5.71,5.71v0.01c0,3.16-2.56,5.71-5.71,5.71H71.88C68.72,267.41,66.16,264.85,66.16,261.7z"/>
	<path class="st2" d="M88.57,263.58h-11.2c-0.69,0-1.25-0.56-1.25-1.25v-1.58c0-0.69,0.56-1.25,1.25-1.25h11.2c0.69,0,1.25,0.56,1.25,1.25v1.58C89.82,263.02,89.26,263.58,88.57,263.58z"/>
	<path class="st2" d="M108.49,263.58h-11.2c-0.69,0-1.25-0.56-1.25-1.25v-1.58c0-0.69,0.56-1.25,1.25-1.25h11.2c0.69,0,1.25,0.56,1.25,1.25v1.58C109.74,263.02,109.18,263.58,108.49,263.58z"/>
	<path class="st2" d="M118.47,261.3h-0.5c-0.51,0-0.93,0.41-0.93,0.93v5.19h2.35v-5.19C119.4,261.71,118.99,261.3,118.47,261.3z"/>
	<path class="st2" d="M122.49,261.3h-0.5c-0.51,0-0.93,0.41-0.93,0.93v5.19h2.35v-5.19C123.42,261.71,123,261.3,122.49,261.3z"/>
	<path class="st2" d="M126.6,261.3h-0.5c-0.51,0-0.93,0.41-0.93,0.93v5.19h2.35v-5.19C127.53,261.71,127.12,261.3,126.6,261.3z"/>
	<path class="st2" d="M130.62,261.3h-0.5c-0.51,0-0.93,0.41-0.93,0.93v5.19h2.35v-5.19C131.55,261.71,131.13,261.3,130.62,261.3z"/>
	<path class="st2" d="M134.64,261.3h-0.5c-0.51,0-0.93,0.41-0.93,0.93v5.19h2.35v-5.19C135.56,261.71,135.15,261.3,134.64,261.3z"/>
	<path class="st2" d="M138.65,261.3h-0.5c-0.51,0-0.93,0.41-0.93,0.93v5.19h2.35v-5.19C139.58,261.71,139.17,261.3,138.65,261.3z"/>
	<path class="st2" d="M142.77,261.3h-0.5c-0.51,0-0.93,0.41-0.93,0.93v5.19h2.35v-5.19C143.69,261.71,143.28,261.3,142.77,261.3z"/>
	<path class="st2" d="M146.78,261.3h-0.5c-0.51,0-0.93,0.41-0.93,0.93v5.19h2.35v-5.19C147.71,261.71,147.3,261.3,146.78,261.3z"/>
	<path class="st2" d="M314.6,255.97h-47.3v0.96c0,1.98,2.45,3.58,5.47,3.58h36.37c3.02,0,5.47-1.6,5.47-3.58V255.97z"/>
	<path class="st3" d="M183.01,267.49c-0.39,0-0.71-0.32-0.71-0.71c0-0.39,0.32-0.71,0.71-0.71c2.76,0,5.01-2.06,5.01-4.59c0-2.53-2.25-4.59-5.01-4.59c-0.39,0-0.71-0.32-0.71-0.71c0-0.39,0.32-0.71,0.71-0.71c3.54,0,6.43,2.7,6.43,6.01C189.44,264.8,186.55,267.49,183.01,267.49z"/>
	<path class="st2" d="M297.1,216.09c0,6.17-5,11.17-11.17,11.17H93.57c-6.17,0-11.17-5-11.17-11.17V83.31c0-6.17,5-11.17,11.17-11.17h192.36c6.17,0,11.17,5,11.17,11.17V216.09z"/>
	<path class="st7" d="M291.59,89.1H87.91c-1.59,0-2.89,1.29-2.89,2.89v124c0,4.72,3.83,8.55,8.55,8.55h192.35c4.72,0,8.55-3.83,8.55-8.55v-124C294.48,90.39,293.18,89.1,291.59,89.1z"/>
	<circle class="st16" cx="99.24" cy="80.88" r="4.55"/>
	<circle class="st16" cx="110.79" cy="80.88" r="4.55"/>
	<circle class="st16" cx="122.34" cy="80.88" r="4.55"/>
	<path class="st7" d="M283.75,81.06c0,1.35-1.13,2.52-2.7,2.52H136.66c-1.57,0-2.7-1.17-2.7-2.52v-2.24c0-1.35,1.13-2.42,2.7-2.42h144.38c1.57,0,2.7,1.07,2.7,2.42V81.06z"/>
	<path class="st16" d="M163.53,211.66c0,1.66-1.34,3-3,3H97.19c-1.66,0-3-1.34-3-3V100.49c0-1.66,1.34-3,3-3h63.35c1.66,0,3,1.34,3,3V211.66z M162.44,100.47c0-1.04-0.85-1.89-1.89-1.89H97.16c-1.04,0-1.89,0.85-1.89,1.89v111c0,1.04,0.85,1.89,1.89,1.89h63.39c1.04,0,1.89-0.85,1.89-1.89V100.47z"/>
	<path class="st16" d="M279.84,214.66H173.87c-1.65,0-2.95-1.77-2.95-3.88v-53.91c0-2.11,1.3-3.73,2.95-3.73h105.98c1.67,0,3.03,1.69,3.03,3.73v53.91C282.88,212.82,281.51,214.66,279.84,214.66z M173.87,154.23c-1.01,0-1.86,1.18-1.86,2.64v53.91c0,1.46,0.85,2.79,1.86,2.79h105.98c1.05,0,1.95-1.38,1.95-2.79v-53.91c0-1.41-0.9-2.64-1.95-2.64H173.87z"/>
	<path class="st16" d="M125.27,108.61c0,0.83-0.67,1.49-1.49,1.49h-20.05c-0.83,0-1.49-0.67-1.49-1.49v-0.05c0-0.83,0.67-1.49,1.49-1.49h20.05c0.83,0,1.49,0.67,1.49,1.49V108.61z"/>
	<path class="st16" d="M151.36,108.61c0,0.83-0.67,1.49-1.49,1.49h-20.05c-0.83,0-1.49-0.67-1.49-1.49v-0.05c0-0.83,0.67-1.49,1.49-1.49h20.05c0.83,0,1.49,0.67,1.49,1.49V108.61z"/>
	<path class="st16" d="M125.27,121.87c0,0.83-0.67,1.49-1.49,1.49h-20.05c-0.83,0-1.49-0.67-1.49-1.49v-0.05c0-0.83,0.67-1.49,1.49-1.49h20.05c0.83,0,1.49,0.67,1.49,1.49V121.87z"/>
	<path class="st16" d="M151.36,121.87c0,0.83-0.67,1.49-1.49,1.49h-20.05c-0.83,0-1.49-0.67-1.49-1.49v-0.05c0-0.83,0.67-1.49,1.49-1.49h20.05c0.83,0,1.49,0.67,1.49,1.49V121.87z"/>
	<path class="st16" d="M138.31,115.56c0,0.83-0.67,1.49-1.49,1.49h-20.05c-0.83,0-1.49-0.67-1.49-1.49v-0.05c0-0.83,0.67-1.49,1.49-1.49h20.05c0.83,0,1.49,0.67,1.49,1.49V115.56z"/>
	<path class="st16" d="M113.32,115.54c0,0.84-0.68,1.52-1.52,1.52h-8.04c-0.84,0-1.52-0.68-1.52-1.52l0,0c0-0.84,0.68-1.52,1.52-1.52h8.04C112.63,114.01,113.32,114.7,113.32,115.54L113.32,115.54z"/>
	<path class="st16" d="M152.01,115.54c0,0.84-0.68,1.52-1.52,1.52h-8.04c-0.84,0-1.52-0.68-1.52-1.52l0,0c0-0.84,0.68-1.52,1.52-1.52h8.04C151.33,114.01,152.01,114.7,152.01,115.54L152.01,115.54z"/>
	<path class="st16" d="M125.27,185.56c0,0.83-0.67,1.49-1.49,1.49h-20.05c-0.83,0-1.49-0.67-1.49-1.49v-0.05c0-0.83,0.67-1.49,1.49-1.49h20.05c0.83,0,1.49,0.67,1.49,1.49V185.56z"/>
	<path class="st16" d="M151.36,185.56c0,0.83-0.67,1.49-1.49,1.49h-20.05c-0.83,0-1.49-0.67-1.49-1.49v-0.05c0-0.83,0.67-1.49,1.49-1.49h20.05c0.83,0,1.49,0.67,1.49,1.49V185.56z"/>
	<path class="st16" d="M125.27,198.82c0,0.83-0.67,1.49-1.49,1.49h-20.05c-0.83,0-1.49-0.67-1.49-1.49v-0.05c0-0.83,0.67-1.49,1.49-1.49h20.05c0.83,0,1.49,0.67,1.49,1.49V198.82z"/>
	<path class="st16" d="M151.36,198.82c0,0.83-0.67,1.49-1.49,1.49h-20.05c-0.83,0-1.49-0.67-1.49-1.49v-0.05c0-0.83,0.67-1.49,1.49-1.49h20.05c0.83,0,1.49,0.67,1.49,1.49V198.82z"/>
	<path class="st16" d="M138.31,192.52c0,0.83-0.67,1.49-1.49,1.49h-20.05c-0.83,0-1.49-0.67-1.49-1.49v-0.05c0-0.83,0.67-1.49,1.49-1.49h20.05c0.83,0,1.49,0.67,1.49,1.49V192.52z"/>
	<path class="st16" d="M113.32,192.49c0,0.84-0.68,1.52-1.52,1.52h-8.04c-0.84,0-1.52-0.68-1.52-1.52l0,0c0-0.84,0.68-1.52,1.52-1.52h8.04C112.63,190.97,113.32,191.65,113.32,192.49L113.32,192.49z"/>
	<path class="st16" d="M152.01,192.49c0,0.84-0.68,1.52-1.52,1.52h-8.04c-0.84,0-1.52-0.68-1.52-1.52l0,0c0-0.84,0.68-1.52,1.52-1.52h8.04C151.33,190.97,152.01,191.65,152.01,192.49L152.01,192.49z"/>
	<path class="st16" d="M225.12,168.7c0,1.35-1.09,2.45-2.45,2.45h-44.63c-1.35,0-2.45-1.09-2.45-2.45v-7.95c0-1.35,1.09-2.45,2.45-2.45h44.63c1.35,0,2.45,1.09,2.45,2.45V168.7z"/>
	<path class="st16" d="M225.12,186.84c0,1.35-1.09,2.45-2.45,2.45h-44.63c-1.35,0-2.45-1.09-2.45-2.45v-7.95c0-1.35,1.09-2.45,2.45-2.45h44.63c1.35,0,2.45,1.09,2.45,2.45V186.84z"/>
	<path class="st16" d="M225.12,204.97c0,1.35-1.09,2.45-2.45,2.45h-44.63c-1.35,0-2.45-1.09-2.45-2.45v-7.95c0-1.35,1.09-2.45,2.45-2.45h44.63c1.35,0,2.45,1.09,2.45,2.45V204.97z"/>
	<path class="st16" d="M278.32,168.7c0,1.35-1.09,2.45-2.45,2.45h-44.63c-1.35,0-2.45-1.09-2.45-2.45v-7.95c0-1.35,1.09-2.45,2.45-2.45h44.63c1.35,0,2.45,1.09,2.45,2.45V168.7z"/>
	<path class="st16" d="M278.32,186.84c0,1.35-1.09,2.45-2.45,2.45h-44.63c-1.35,0-2.45-1.09-2.45-2.45v-7.95c0-1.35,1.09-2.45,2.45-2.45h44.63c1.35,0,2.45,1.09,2.45,2.45V186.84z"/>
	<path class="st16" d="M278.32,204.97c0,1.35-1.09,2.45-2.45,2.45h-44.63c-1.35,0-2.45-1.09-2.45-2.45v-7.95c0-1.35,1.09-2.45,2.45-2.45h44.63c1.35,0,2.45,1.09,2.45,2.45V204.97z"/>
	<path class="st16" d="M157.23,172.44c0,1.35-1.09,2.45-2.45,2.45h-53.37c-1.35,0-2.45-1.09-2.45-2.45v-37.72c0-1.35,1.09-2.45,2.45-2.45h53.37c1.35,0,2.45,1.09,2.45,2.45V172.44z"/>
	<ellipse transform="matrix(0.1602 -0.9871 0.9871 0.1602 48.0343 271.9816)" class="st16" cx="183.86" cy="107.76" rx="3.57" ry="3.57"/>
	<path class="st16" d="M274.4,107.93c0,0.84-0.68,1.52-1.52,1.52h-76.95c-0.84,0-1.52-0.68-1.52-1.52l0,0c0-0.84,0.68-1.52,1.52-1.52h76.95C273.72,106.41,274.4,107.09,274.4,107.93L274.4,107.93z"/>
	<circle class="st16" cx="183.86" cy="121.42" r="3.57"/>
	<path class="st16" d="M274.4,121.62c0,0.84-0.68,1.52-1.52,1.52h-76.95c-0.84,0-1.52-0.68-1.52-1.52l0,0c0-0.84,0.68-1.52,1.52-1.52h76.95C273.72,120.1,274.4,120.78,274.4,121.62L274.4,121.62z"/>
	<circle class="st16" cx="183.86" cy="135.07" r="3.57"/>
	<path class="st16" d="M274.4,135.1c0,0.84-0.68,1.52-1.52,1.52h-76.95c-0.84,0-1.52-0.68-1.52-1.52l0,0c0-0.84,0.68-1.52,1.52-1.52h76.95C273.72,133.58,274.4,134.26,274.4,135.1L274.4,135.1z"/>
	<path class="st16" d="M279.92,97.49h-73c-0.15,0-0.34,0.09-0.34,0.24v0.55c0,0.15,0.19,0.29,0.34,0.29h73c1.04,0,1.87,0.83,1.87,1.88v41.68c0,1.04-0.83,1.88-1.87,1.88h-56.15c-0.15,0-0.24,0.13-0.24,0.29v0.55c0,0.15,0.08,0.25,0.24,0.25h56.15c1.65,0,2.96-1.32,2.96-2.97v-41.68C282.88,98.8,281.57,97.49,279.92,97.49z"/>
	<path class="st2" d="M415.21,255.04c2.73-3.02,4.47-5.74,5.3-6.93c4.8-6.88,11.28-8.78,12.99-9.2c4.57-1.12,6.86,0.47,7.21-0.8c0.64-2.33-6.13-11.35-14.34-11.7c-9.52-0.41-15.27,11.07-15.69,11.93c-3.75,7.75-4.58,18.53-2.61,20.22c0.78,0.67,2.12,0.02,3.57-0.68C413.33,257.06,414.47,255.85,415.21,255.04z"/>
	<path class="st3" d="M401.68,267.76c0,0,18.29,1.73,26.44-9.77c8.15-11.5-10.93-4.37-10.93-4.37L401.68,267.76z"/>
	<path class="st2" d="M433.82,247.26c2.57,2.9,5.15,5.79,7.72,8.69c-3.53,3.79-7.58,6.51-12.12,6.82c-4.31,0.29-6.37-1.77-11.05-1.87c-3.71-0.08-7.98,1.08-12.73,4.63c2.44-4.4,4.8-7.71,6.67-10.08c1.36-1.72,3.3-4.15,6.18-6.65c3.57-3.1,5.79-5.02,8.79-4.94C430,243.92,432.24,245.59,433.82,247.26z"/>
	<path class="st3" d="M402.39,267.31c7.49-3.87,12.88-8.4,16.46-11.87c3.51-3.41,5.29-5.81,8.44-6.65c5.5-1.45,10.7,3.07,14.26,7.16c-0.39-1.09-5.22-14.21-15.09-15.85c-8.72-1.44-17.62,6.71-21.04,20.11C404.41,262.57,403.4,264.94,402.39,267.31z"/>
	<path class="st2" d="M402.39,267.31c2.29-5.79,5.58-15.96,6.36-29.4c1.19-20.47-4.19-35.94-6.6-42.01c-2.12,3.94-4.98,10.33-6.32,18.76c-0.5,3.15-0.84,6.91-0.69,12.25C395.58,242.82,399.96,259.18,402.39,267.31z"/>
	<path class="st2" d="M392.19,243.54c-0.19,2.48-8.85,3.63-25.97,3.46c2.83-4.17,5.67-8.35,8.5-12.52C386.53,238.44,392.35,241.46,392.19,243.54z"/>
	<path class="st2" d="M402.06,266.71c0.16,0.38,0.29,0.73,0.4,1.03c-4.67,0.46-11.19-0.06-18.3-4.6c-2.11-1.35-4.01-2.88-5.7-4.46c0.5-0.53,2.79-2.85,6.02-4.04c1.25,0.04,2.46,0.49,3.61,1.67C392.41,260.97,396.99,265.87,402.06,266.71z"/>
	<path class="st3" d="M396.92,255.55c2.29,1.63,3.47,4.24,3.8,5.03c1.06,2.51,1.28,4.9,1.34,6.13c-3.59,0.85-6-0.37-7.52-1.62c-2.09-1.72-3.12-3.99-6.73-7.53c-1.39-1.36-2.58-2.33-3.33-2.92c2.51-0.39,4.63-0.44,6.19-0.4C393.73,254.32,395.29,254.39,396.92,255.55z"/>
	<path class="st3" d="M402.42,267.76c0.89-1.47,2.6-4.73,3.22-9.55c0.88-6.93-1.11-12.32-1.72-13.84c-2.51-2.61-6.24-5.86-11.15-8.07c-7.7-3.48-14.37-2.67-18.04-1.81c4.38,2.44,10.9,6.97,17.35,15.33C397,256.18,400.29,262.73,402.42,267.76z"/>
	<path class="st3" d="M402.46,267.76c2.22-6.49,6.02-19.76,5.75-37.26c-0.25-16.08-3.81-28.24-6.06-34.59c2.02,1.83,4.8,4.76,7.49,9.2c0.88,1.46,3.03,5.01,4.28,9.03c2.49,8.01,0.9,16.18-0.75,24.22C411.74,245.28,408.83,256.15,402.46,267.76z"/>
	<path class="st3" d="M410.54,248.58c2.02-9.82,7.48-17.22,14.16-19.1c7.9-2.22,13.91,4.27,14.84,5.31c-0.93-2.52-3.14-7.63-7.4-10.76c-5.61-4.13-14.53-4.58-19.41,3.86C407.9,236.26,410.33,247.65,410.54,248.58z"/>
	<path class="st17" d="M78.71,242.91c0,0,16.47,2.05,22.2,8.7c-0.65,0.14-1.3,0.26-1.94,0.36c-1.01,0.16-1.77,0.23-1.94,0.25c-4.25,0.43-16.17,3.54-28.98,2.28c-1.09-0.11-2.82-0.31-4.96-0.7c-0.25-2.27-0.5-4.55-0.75-6.82L78.71,242.91z"/>
	<path class="st11" d="M100.91,251.61c1.2,1.4,1.93,3,1.93,4.83c-13.52,0-39.48,0-39.48,0l-0.29-2.64c7.35,0.5,13.06-0.15,16.97-0.85c3.77-0.68,7.72-1.75,13.72-1.79C96.79,251.14,99.28,251.39,100.91,251.61z"/>
	<path class="st2" d="M166.14,140.89c-0.13-0.23-0.28-0.45-0.45-0.68c-2.29-3.14-5.11-5.92-7.23-9.19c-5.05,2.79-12.31,5.64-19.93,3.86c-8.06-1.87-11.73-7.79-15.53-11.06c-6.32-5.42-16.83-6.8-28.62-5.31c-1.4,0.18-2.69,1.66-4.12,1.91c-5.31,0.94-10.92,1.14-16.34,3.04c-22.93,8.01-44.65,23.61-46.29,39.09c-0.15,1.38-0.69,6.54,2.41,10.46c7.83,9.89,30.87,1.89,32.2,1.41c-0.1-1.09-0.2-2.17-0.3-3.26c-6.8,1.67-12.41-2.77-12.7-6.89c-0.15-2.18,1.15-4.65,3.49-6.44c2.1-1.61,4.74-2.37,7.38-2.13c9.09,0.83,12.58,3.81,14.1,6.37c2.36,3.99-0.09,7.6,2.53,15.36c1.26,3.72,2.56,7.59,5.21,10.59c7.16,8.14,23.66,9.4,35.04,2.09c7.76-4.99,15.34-15.38,12.88-23.14c-1.99-6.25-9.13-6.53-14.17-15.72c-2.61-4.75-3.28-9.4-3.47-12.44c0.86,0.8,22.81,24.75,38.92,20.39c4.66-1.26,9.02-3.62,12.23-7.25C166.24,148.71,168.5,144.84,166.14,140.89z"/>
	<path class="st18" d="M111.8,152.88c-2.37-6.85,1.76-12.86-1.67-15.69c-1.79-1.47-4.86-1.44-6.94-0.41c-8.42,4.18-4.96,26.9-4.15,32.21c0.95,6.26,2.99,15.08,7.77,25.23c3.58-0.75,7.07-2.11,10.17-4.1c5.83-3.75,11.56-10.55,13-16.99c-1.21-3.14-2.78-5.49-4.38-7.27C120.25,159.87,114.13,159.63,111.8,152.88z"/>
	<path class="st7" d="M98.08,186.98c-9.09-6.98,3.96-31.68-8.5-48.23c-6.46-8.58-15.99-9.92-15.65-15.27c0-0.01,0-0.02,0-0.02c6.88-2.4,13.87-4.12,20.46-4.95c3.44,2.12,6.39,5.32,8.32,8.82c3.35,6.11,3.3,12.72,3.23,23.8c-0.08,11.65-1.87,15.4,0.74,19.22c4.23,6.18,13.48,2.98,14.15,5.76C121.74,179.97,105.44,192.63,98.08,186.98z"/>
	<path class="st19" d="M122.99,179.83c2.19,6.69-5.34,9.88-22.47,34.58c-7.33,10.57-10.25,22.05-12.42,29c-4.55,0.57-15.81,2.98-26.43,5.06c-1.37-3.52-3.83-13.79-1.91-20.63c1.8-6.39,6.05-10.38,12.94-16.7c9.9-9.08,12.87-8.04,16.61-14.09c5.04-8.14,1.53-13.02,6.04-17.76C102.53,171.74,121.08,174.01,122.99,179.83z"/>
	<path class="st11" d="M206.84,97.98c0.26,0.42,0.23,0.95-0.08,1.33l-2.92,3.58l-2.14,2.62l-14.73,18.05c-0.49,0.6-1.07,1.12-1.72,1.54c-0.03,0.02-0.07,0.05-0.1,0.07L62.2,201.96l-12.04-19.28l122.98-76.81c0.02-0.01,0.05-0.03,0.07-0.04c0.65-0.4,1.36-0.69,2.09-0.87l22.57-5.57l3.27-0.81l4.45-1.1C206.08,97.36,206.58,97.56,206.84,97.98z"/>
	<path class="st21" d="M35.48,191.84c-4.53,2.83-5.91,8.8-3.08,13.33l1.79,2.87c2.83,4.53,8.8,5.91,13.33,3.08l9.51-5.94l-12.04-19.28L35.48,191.84z"/>
	<rect x="44.91" y="184.18" transform="matrix(0.8482 -0.5297 0.5297 0.8482 -95.8403 56.7095)" class="st18" width="12.2" height="22.73"/>
	<rect x="41.06" y="143.7" transform="matrix(0.8482 -0.5297 0.5297 0.8482 -60.7838 82.5391)" class="st22" width="145.08" height="7.21"/>
	<rect x="49.28" y="156.87" transform="matrix(0.8482 -0.5297 0.5297 0.8482 -66.5103 88.8945)" class="st22" width="145.08" height="7.21"/>
	<path class="st17" d="M205.73,98.67c0.26,0.42,0.47,0.05,0.16,0.43l-3.23,2.52l-0.96,3.88l-14.73,18.05c-0.49,0.6-1.07,1.12-1.72,1.54l0,0l-2.6,1.63c-3.01-1.34-2.94-3.91-3.12-6.55c-0.04-0.63-0.1-1.27-0.22-1.9c-0.57-3.07-0.83-2.54-3.84-5.37c-0.24-0.23-0.5-0.48-0.78-0.75c-2.29-2.25-2.32-4.56-1.99-6.02l0.51-0.32l0,0c0.65-0.4,1.36-0.69,2.09-0.87l22.57-5.57l3.63,0.71l4.16-1.73C206.15,98.24,205.47,98.25,205.73,98.67z"/>
	<path class="st18" d="M206.84,97.98c0.26,0.42,0.23,0.95-0.08,1.33l-2.92,3.58l-2.14,2.62l-3.82-6.12l3.27-0.81l4.45-1.1C206.08,97.36,206.58,97.56,206.84,97.98z"/>
	<path class="st17" d="M162.64,242.61c0,0,16.47,2.05,22.2,8.7c-0.65,0.14-1.3,0.26-1.94,0.36c-1.01,0.16-1.77,0.23-1.94,0.25c-4.25,0.43-16.17,3.54-28.98,2.28c-1.09-0.11-2.82-0.31-4.96-0.7c-0.25-2.27-0.5-4.55-0.75-6.82L162.64,242.61z"/>
	<path class="st11" d="M184.84,251.31c1.2,1.4,1.93,3,1.93,4.83c-13.52,0-39.48,0-39.48,0l-0.29-2.64c7.35,0.5,13.06-0.15,16.97-0.85c3.77-0.68,7.72-1.75,13.72-1.79C180.72,250.84,183.2,251.09,184.84,251.31z"/>
	<path class="st23" d="M145.42,248.56c0,0,33.11-3.86,33.11-3.86c0.2-7.45,1.38-27.59-14.77-45.86c-8.5-9.62-18.94-15.02-27.56-19.48c-3.23-1.67-8.61-4.24-15.89-5.52c-3.76-0.66-7.79-1.3-12.66-0.19c-5.87,1.34-13.29,5.43-12.96,9.2c0.26,3,2.43,9.55,10.18,12.09c22.26,7.29,26.51,6.37,33.85,12.06c8.97,6.95,9.45,20.52,7.51,30.74C146.08,238.56,144.72,248.64,145.42,248.56z"/>
	<path class="st12" d="M84.59,112.82c-0.77,2-3.54,8.82-3.2,9.64c0.42,1.04,1.79,0.58,2.35,0.28c0.98-0.52,1.55-1.64,1.78-2.15l0.74-4.77L84.59,112.82z"/>
	<path class="st12" d="M85.85,110.53c0,0,1.37,1.85,1.97,3.16c0.6,1.3,1.25,3.49-0.05,4.04c-1.97,0.83-3.82-1.82-3.82-1.82l-2.72-2.37C81.23,113.54,82.61,109.61,85.85,110.53z"/>
	<path class="st19" d="M84.44,115.08c-1.7-1.37-1.96-2.08-1.81-2.48c0.38-1,3.42-0.22,4.21-1.71c0.28-0.53,0.26-1.28-0.11-1.71c-1.03-1.2-5.06-0.14-6.95,2.38c-0.39,0.52-0.93,1.26-0.78,2.1c0.3,1.64,3.09,2.86,4.7,2.02C84.06,115.51,84.3,115.25,84.44,115.08z"/>
	<path class="st12" d="M84.83,115.34c0,0-1.66-0.8-2.33,0.02c-0.67,0.82,1.59,1.77,2.72,1.04L84.83,115.34z"/>
	<path class="st12" d="M85.81,118.83c-0.73-0.05-3.39-0.32-3.39-0.32s-0.73,2.44-3.88,3.45l-2.43,0.77l10.74,2.15c0.29,0.06,0.59-0.11,0.68-0.39l1.77-5.17C89.3,119.31,85.44,120.29,85.81,118.83z"/>
	<path class="st12" d="M63.99,171.62l3.71-0.53c0,0,3.18-2.01,6.1-1.27c2.91,0.74,3.73,1.03,1.91,1.8c-1.82,0.77,10.3-1,10.07,1.41c-0.24,2.41-9.69,5.65-14.41,5.12c-4.72-0.53-10.66-1.65-10.66-1.65L63.99,171.62z"/>
	<path class="st2" d="M52.1,158.36c8.32-9.36-21.31-4.9-21.31-4.9s-16.78,29.47,27.34,30.72l13.39-17.48C71.52,166.7,43.79,167.72,52.1,158.36z"/>
	<path class="st12" d="M171.53,132.6c-2.27-3.07-4.19-3.44-5.26-1.17c-1.07,2.27-10.22,9.59-3.44,10.97c0,0,4.72,1.18,6.73-0.95C171.58,139.32,173.8,135.68,171.53,132.6z"/>
	<path class="st12" d="M155.31,143.81c0,0,5.27,5.05,10.2-1.08l2.24-6.68L155.31,143.81z"/>
	<path class="st12" d="M321.36,158.3c0,0-24.66,5.02-22.81,19.89c0,0,1.59,7.22,5.84,7.22c4.24,0,6.37-9.97,11.03-9.55c4.67,0.42,5.49,7.43,3.38,9.55c3.83-1.27,5.85-5.94,5.85-5.94S324.65,159.31,321.36,158.3z"/>
	<path class="st23" d="M378.21,166.14c-6.01,4.71-19.01,2.28-45-2.58c-6.2-1.16-12.63-2.59-15.27-6.73c-0.27-0.43-0.5-0.88-0.69-1.37c-1.04-2.71-0.76-6.54,1.35-9.03c3.71-4.39,10.03-0.99,16.83-4.5c2.93-1.51,6.61-4.65,9.31-11.92c0.88-2.48,3.64-9.18,10.39-12.54c9.09-4.54,20.18-0.4,26.72,6.03l0,0c0.76,0.74,1.45,1.52,2.08,2.32C393.42,137.92,388.83,157.82,378.21,166.14z"/>
	<path class="st19" d="M378.21,166.14c-6.01,4.71-19.01,2.28-45-2.58c-6.2-1.16-12.63-2.59-15.27-6.73c4.86,2.22,13.07,4.38,20.05-1.4c4.35-3.59,9.85-5.85,15.4-3.66c4.1,1.62,6.61,4.75,10.22,7.04c2.68,1.69,6.16,1.83,8.97,0.39c6.53-3.34,1.75-10.39,1.83-15.71c0.07-4.67,3.48-6.85,6.44-9.84c3.25-3.28,3.98-6.26,1-10.15c0.76,0.74,1.45,1.52,2.08,2.32C393.42,137.92,388.83,157.82,378.21,166.14z"/>
	<path class="st2" d="M327.93,255.96c0.23-0.88,0.69-2.12,1.77-3.06c2.25-1.96,5.33-0.96,9.85-0.89c6.36,0.1,5.8-1.79,10.48-1.4c7.08,0.59,13.51,5.35,13.51,5.35l0,0C363.54,255.96,351.03,255.96,327.93,255.96z"/>
	<rect x="341.31" y="229.86" class="st2" width="2.15" height="23.13"/>
	<path class="st12" d="M281.59,244.43c0.29,3.84,0.58,7.69,0.87,11.53c-11.96,0-23.93,0-35.89,0c0.34-1.09,0.97-2.62,2.18-4.13c2.57-3.23,6.2-4.39,9.79-5.22C267.49,244.53,276.59,244.36,281.59,244.43z"/>
	<path class="st21" d="M281.59,253.68h-33.28c-0.18,0-0.33-0.15-0.33-0.33c0-0.18,0.15-0.33,0.33-0.33h33.28c0.18,0,0.33,0.15,0.33,0.33C281.92,253.53,281.77,253.68,281.59,253.68z"/>
	<circle class="st21" cx="256.82" cy="249.45" r="1.09"/>
	<path class="st21" d="M263.35,247.74c0,0.6-0.49,1.09-1.09,1.09c-0.6,0-1.09-0.49-1.09-1.09s0.49-1.09,1.09-1.09C262.86,246.65,263.35,247.14,263.35,247.74z"/>
	<path class="st12" d="M332.56,245.95c0.29,3.84,0.47,6.17,0.76,10.01c-11.96,0-23.93,0-35.89,0c0.34-1.09,0.97-2.62,2.18-4.13c2.57-3.23,6.2-4.39,9.79-5.22C318.34,244.53,327.56,245.88,332.56,245.95z"/>
	<path class="st21" d="M332.44,253.68h-33.28c-0.18,0-0.33-0.15-0.33-0.33c0-0.18,0.15-0.33,0.33-0.33h33.28c0.18,0,0.33,0.15,0.33,0.33C332.77,253.53,332.63,253.68,332.44,253.68z"/>
	<circle class="st21" cx="307.68" cy="249.45" r="1.09"/>
	<circle class="st21" cx="313.11" cy="247.74" r="1.09"/>
	<path class="st12" d="M316.16,169.82c-0.73,1.07,7.51,5.48,6.6,11.03c-0.99,6.08-11.64,5.35-14.61,12.05c-3.73,8.42,6.84,23.6,19.95,29.82c3.18,1.51,14.55,6.9,21.83,1.54c7.43-5.47,5.95-18.69,3.81-25.65C346.84,176.21,317.44,167.94,316.16,169.82z"/>
	<polygon class="st15" points="323.27,152.38 322.61,161.66 327.64,161.35 326.19,152.43"/>
	<path class="st17" d="M321.61,157.21c0.81,0.24,2.02,0.49,3.48,0.44c1.72-0.06,3.08-0.51,3.92-0.87c1.11,8.43,3.48,14.66,5.36,18.68c2.06,4.39,4.31,8.15,5.76,10.08c5.12,6.82,10.06,9.46,10.14,15.33c0.08,5.74-4.52,12.07-10.69,13.67c-8.94,2.32-16.46-6.51-18.87-12.62c-1.52-3.85-2.27-9.83,0.29-11.66c1.71-1.22,3.5,0.4,4.78-0.69c2.54-2.17-4.23-10.4-5.08-21.75C320.36,163.43,320.99,159.73,321.61,157.21z"/>
	<path class="st12" d="M344.11,181.11c0.94,0.46,14.76,7.5,16.07,22.04c0.73,8.07-2.23,20.55-12.13,23.96c-8.32,2.86-16.32-2.46-17.52-3.29c8.66-1.19,11.73-4.97,12.78-6.6c5.98-9.2-3.22-25.03-5.02-28.12c-5.3-9.09-10.52-11.64-11.22-19.46c-0.42-4.7,1.04-8.71,2.32-11.35c4.16,0.62,16.98,2.9,22.57,10.61c1.8,2.48,1.82,4.12,1.71,4.98C353.25,177.14,349.5,179.89,344.11,181.11z"/>
	<path class="st15" d="M321.12,150.57c0,0-1.69,4.59,0.94,5.47c2.63,0.88,4.07-2.99,4.07-2.99s1.85-0.72,1.48-1.92c-0.37-1.2-1.68,0.33-1.68,0.33s0.06-1.21-0.32-1.5c-0.38-0.29-0.45-0.96-1.93,0.49C322.21,151.89,321.12,150.57,321.12,150.57z"/>
	<path class="st19" d="M324.87,193.1c-16.36,3.76-27.25,17.24-26.75,30.89c0.47,13.07,11.21,21.21,12.83,22.4h22.62c-11.85-10.78-14.14-25.11-8.48-32.41c3.55-4.58,9.63-5.61,12.83-5.87C338.07,205.43,342.71,198.32,324.87,193.1z"/>
	<path class="st23" d="M320.29,190.97c0,0,5.32-0.51,10.59,2.91c3.81,2.47,9.7,7.98,8.56,12.27c-1.92,7.19-21.82,4.59-41.65,15.99c-2.24,1.29-5.64,3.42-8.58,7.34c-4.64,6.18-5.37,13.09-5.45,16.91c-17.62,0.22-24.36-0.65-24.36-0.65c1.88-6.77,8.42-26.83,28.28-41.33C300.41,195.12,313.16,192.1,320.29,190.97z"/>
	<path class="st2" d="M357.28,179.18c-0.34-7.86-2.82-13.05-1.74-13.49c1.68-0.67,9.29,9.78,12.03,21.97c1.13,5.01,6.57,27.9-8.67,38.55c-12.67,8.86-32.82,6.62-37.84-1.62c-0.37-0.6-1.88-3.09-0.98-5.17c1.96-4.5,12.11,0.02,21.1-4.13C353.04,209.8,357.82,191.54,357.28,179.18z"/>
	<path class="st15" d="M308.57,187.53c-1.59-3.4,1.46-7.49-1.18-9.34c-2.64-1.84-7.61,1.15-7.35,3.92c0.17,1.8,5.99,10.88,7.35,10.99c1.37,0.11,2.03,2.54,3.41,4.35s3.13-1.01,3.18-4.32C314.04,189.81,310.16,190.92,308.57,187.53z"/>
	<path class="st15" d="M357.31,180.08c-1.11-11.02-12.69-17.17-12.69-17.17l-0.34,17.16c0.32,1.68,0.08,3.08-0.53,4.26c-0.62,1.19-1.6,2.09-2.7,2.83c-2.05,1.37-4.43,2.13-6.8,2.73c-0.96,0.24-1.92,0.45-2.89,0.67c-1.03,0.24-5.99,0.88-8.31,1.76c-3.54,1.34-5.24,3.82-3.48,4.77c0.47,0.25,0.93,0.14,1.38-0.08c1-0.49,1.78-1.27,2.87-1.59c0.79-0.24,1.43-0.12,2.15,0.24c0.62,0.31,1.23,0.63,1.94,0.43c1-0.29,1.97-0.63,3.01-0.71c1.1-0.09,2.21-0.05,3.31-0.04c5.17,0.07,13-1.51,18.09-5.24C355.61,187.68,357.75,184.39,357.31,180.08z"/>
	<path class="st12" d="M352.39,190.21c-1.9-3.15-6.68-5.2-8.65-5.89c0.62-1.17-0.74-3.28-1.06-4.96l1.94-16.45c0,0,11.86,5.8,12.97,16.83C358.03,184.04,355.67,187.81,352.39,190.21z"/>
	<path class="st11" d="M255.29,256.15L255.29,256.15c-0.65-0.16-1.05-0.83-0.89-1.48l13.29-53.35c0.16-0.65,0.83-1.05,1.48-0.89h0c0.65,0.16,1.05,0.83,0.89,1.48l-13.29,53.35C256.61,255.91,255.94,256.31,255.29,256.15z"/>
	<path class="st11" d="M266.66,197.98c29.46,0,58.91,0,88.37,0c5.01,0,5.84,2.65,5.22,4.34c-0.6,1.64-5.78,2.07-8.98,2.26c-17.23,1.03-35.76-1.36-47.63-1.98c-25.41-1.32-43.1,4.29-45.54,0.42c-0.69-1.09-0.82-2.35,0.91-3.48C261.38,197.98,264.29,197.98,266.66,197.98z"/>
	<path class="st11" d="M359.08,256.15L359.08,256.15c0.65-0.16,1.05-0.83,0.89-1.48l-13.29-53.35c-0.16-0.65-0.83-1.05-1.48-0.89l0,0c-0.65,0.16-1.05,0.83-0.89,1.48l13.29,53.35C357.77,255.91,358.43,256.31,359.08,256.15z"/>
	<path class="st18" d="M327.75,198.09h-26.22c-0.56,0-1.01-0.46-1.01-1.01s0.46-1.01,1.01-1.01h26.22c0.56,0,1.01,0.46,1.01,1.01S328.31,198.09,327.75,198.09z"/>
	<path class="st18" d="M313.62,198.1h-23.24c-3.97,0-7.87-3.25-8.67-7.21l-2.35-11.62c-0.8-3.97,1.79-7.21,5.76-7.21h23.24c3.97,0,7.87,3.25,8.67,7.21l2.35,11.62C320.17,194.85,317.58,198.1,313.62,198.1z"/>
	<path class="st2" d="M312.12,198.1h-23.24c-3.97,0-7.87-3.25-8.67-7.21l-2.35-11.62c-0.8-3.97,1.79-7.21,5.76-7.21h23.24c3.97,0,7.87,3.25,8.67,7.21l2.35,11.62C318.67,194.85,316.08,198.1,312.12,198.1z"/>
	<path class="st1" d="M220.7,50.46c3.74-4.99,1.37-7.8,1.37-7.8c-4.22-7.13-14.86-3.86-23.9,0.79c-5.7,2.93-3.76-4.73-3.68-6.15c0.21-3.76-0.83-8.18-4.62-10.91c-4.98-3.59-12.16-2.75-17.8-0.56c-5.64,2.18-31.29,18.38-40.79,24.62H220.7z"/>
	<path class="st0" d="M6.52,268.01c21.03,9.95,37.72,11.85,49.15,11.72c8.03-0.09,13.97-0.22,40.4-2.62c30.09-2.74,38.08,1.39,72.41,2.1c46.17,0.95,41.2-6.33,81.33-5.25c52.65,1.42,56.01,13.81,89.72,7.35c20.4-3.91,32.17-10.95,51.42-7.35c7.81,1.46,17.2,3.46,30.43,1.57c10.24-1.46,18.32-4.84,23.61-7.52c-58.29-0.04-162.34-0.07-220.63-0.07C167.27,267.94,63.59,267.97,6.52,268.01z"/>
	<path class="st3" d="M445.93,268.21H4.75c-0.37,0-0.67-0.3-0.67-0.67c0-0.37,0.3-0.67,0.67-0.67h441.18c0.37,0,0.67,0.3,0.67,0.67C446.6,267.91,446.3,268.21,445.93,268.21z"/>
</g>
</svg>